<svg version="1.1" id="Layer_1" xmlns="http://www.w3.org/2000/svg" xmlns:xlink="http://www.w3.org/1999/xlink" x="0px" y="0px"
	 width="100%" viewBox="0 0 2200 2200" enable-background="new 0 0 2200 2200" xml:space="preserve">
<path fill="#000000" opacity="1.000000" stroke="none" 
	d="
M1282.000000,2202.000000 
	C854.714966,2202.000000 428.429962,2202.000000 2.072461,2202.000000 
	C2.072461,1468.798096 2.072461,735.596130 2.072461,2.197100 
	C735.118774,2.197100 1468.237549,2.197100 2201.678223,2.197100 
	C2201.678223,735.333191 2201.678223,1468.666626 2201.678223,2202.000000 
	C1895.595215,2202.000000 1589.297607,2202.000000 1282.000000,2202.000000 
M2126.316895,1161.179199 
	C2126.765381,1153.554565 2127.650146,1145.926147 2127.584473,1138.305908 
	C2127.334229,1109.347534 2127.398438,1080.364746 2126.143311,1051.443237 
	C2125.078613,1026.905884 2122.944336,1002.375732 2120.254150,977.955811 
	C2113.641846,917.936218 2100.662354,859.219299 2083.035400,801.478699 
	C2054.847168,709.143250 2014.220337,622.609497 1961.352783,541.926941 
	C1919.816406,478.537231 1872.427002,419.790405 1817.078613,367.832031 
	C1793.325195,345.533264 1769.163330,323.562805 1743.978027,302.917847 
	C1689.195801,258.011627 1629.649536,220.139023 1566.522827,188.098984 
	C1513.584961,161.230301 1458.561279,139.345184 1401.725586,122.014915 
	C1316.937256,96.161285 1230.163330,81.870140 1141.715698,78.622459 
	C1101.179443,77.134026 1060.556030,77.910843 1019.996277,81.439789 
	C981.520752,84.787392 943.316040,89.673790 905.459717,97.123665 
	C809.156982,116.075432 717.154053,147.573898 630.493286,193.800156 
	C600.265625,209.924057 570.371948,226.941574 541.690674,245.644150 
	C470.302063,292.195404 405.889221,347.153595 348.277283,410.102234 
	C312.907196,448.748688 280.636963,489.759430 251.475311,533.217224 
	C221.192398,578.345886 194.815125,625.673279 172.106613,675.088379 
	C150.515884,722.071045 132.513123,770.366272 118.371384,820.049377 
	C96.530365,896.781921 83.112236,974.981201 80.360947,1054.799561 
	C78.456703,1110.043579 78.309685,1165.334351 85.909752,1220.231323 
	C90.693596,1254.786133 95.655754,1289.425049 102.999451,1323.495605 
	C121.963699,1411.478516 152.604691,1495.394165 194.313522,1575.243286 
	C215.468765,1615.743774 239.056641,1654.724731 265.414795,1692.032959 
	C302.749786,1744.878174 344.122986,1794.300171 391.330078,1838.631470 
	C412.174591,1858.206299 433.135254,1877.762085 455.224487,1895.886841 
	C517.759216,1947.197876 585.528076,1990.424683 658.472046,2025.609619 
	C708.390320,2049.687988 759.830627,2069.803955 812.918457,2085.364746 
	C892.024719,2108.552246 972.801331,2122.785156 1055.325439,2125.631836 
	C1115.901123,2127.720947 1176.359619,2126.634766 1236.599365,2118.436035 
	C1293.096069,2110.746826 1348.624268,2099.039307 1403.171509,2082.432129 
	C1482.873291,2058.166504 1558.363403,2024.492676 1629.870850,1981.821289 
	C1673.405396,1955.842529 1714.739380,1926.640625 1753.869751,1894.484863 
	C1784.707031,1869.143799 1814.426392,1842.426025 1841.457031,1812.954468 
	C1860.556641,1792.130249 1879.848633,1771.411621 1897.768433,1749.589600 
	C1949.118530,1687.057739 1992.193604,1619.182861 2027.234619,1546.176880 
	C2055.271729,1487.763184 2077.524170,1427.282227 2094.151123,1364.692871 
	C2111.712646,1298.584473 2122.119385,1231.336304 2126.316895,1161.179199 
z"/>
<path fill="#0EA479" opacity="1.000000" stroke="none" 
	d="
M2126.310547,1162.137207 
	C2122.119385,1231.336304 2111.712646,1298.584473 2094.151123,1364.692871 
	C2077.524170,1427.282227 2055.271729,1487.763184 2027.234619,1546.176880 
	C1992.193604,1619.182861 1949.118530,1687.057739 1897.768433,1749.589600 
	C1879.848633,1771.411621 1860.556641,1792.130249 1841.457031,1812.954468 
	C1814.426392,1842.426025 1784.707031,1869.143799 1753.869751,1894.484863 
	C1714.739380,1926.640625 1673.405396,1955.842529 1629.870850,1981.821289 
	C1558.363403,2024.492676 1482.873291,2058.166504 1403.171509,2082.432129 
	C1348.624268,2099.039307 1293.096069,2110.746826 1236.599365,2118.436035 
	C1176.359619,2126.634766 1115.901123,2127.720947 1055.325439,2125.631836 
	C972.801331,2122.785156 892.024719,2108.552246 812.918457,2085.364746 
	C759.830627,2069.803955 708.390320,2049.687988 658.472046,2025.609619 
	C585.528076,1990.424683 517.759216,1947.197876 455.224487,1895.886841 
	C433.135254,1877.762085 412.174591,1858.206299 391.330078,1838.631470 
	C344.122986,1794.300171 302.749786,1744.878174 265.414795,1692.032959 
	C239.056641,1654.724731 215.468765,1615.743774 194.313522,1575.243286 
	C152.604691,1495.394165 121.963699,1411.478516 102.999451,1323.495605 
	C95.655754,1289.425049 90.693596,1254.786133 85.909752,1220.231323 
	C78.309685,1165.334351 78.456703,1110.043579 80.360947,1054.799561 
	C83.112236,974.981201 96.530365,896.781921 118.371384,820.049377 
	C132.513123,770.366272 150.515884,722.071045 172.106613,675.088379 
	C194.815125,625.673279 221.192398,578.345886 251.475311,533.217224 
	C280.636963,489.759430 312.907196,448.748688 348.277283,410.102234 
	C405.889221,347.153595 470.302063,292.195404 541.690674,245.644150 
	C570.371948,226.941574 600.265625,209.924057 630.493286,193.800156 
	C717.154053,147.573898 809.156982,116.075432 905.459717,97.123665 
	C943.316040,89.673790 981.520752,84.787392 1019.996277,81.439789 
	C1060.556030,77.910843 1101.179443,77.134026 1141.715698,78.622459 
	C1230.163330,81.870140 1316.937256,96.161285 1401.725586,122.014915 
	C1458.561279,139.345184 1513.584961,161.230301 1566.522827,188.098984 
	C1629.649536,220.139023 1689.195801,258.011627 1743.978027,302.917847 
	C1769.163330,323.562805 1793.325195,345.533264 1817.078613,367.832031 
	C1872.427002,419.790405 1919.816406,478.537231 1961.352783,541.926941 
	C2014.220337,622.609497 2054.847168,709.143250 2083.035400,801.478699 
	C2100.662354,859.219299 2113.641846,917.936218 2120.254150,977.955811 
	C2122.944336,1002.375732 2125.078613,1026.905884 2126.143311,1051.443237 
	C2127.398438,1080.364746 2127.334229,1109.347534 2127.584473,1138.305908 
	C2127.650146,1145.926147 2126.765381,1153.554565 2126.310547,1162.137207 
M1237.293091,441.860626 
	C1176.238403,423.822510 1113.581665,423.449921 1050.931885,426.678833 
	C1011.248779,428.724060 972.530457,438.074402 934.826294,450.769165 
	C847.074951,480.314575 772.385254,529.792480 710.220886,598.392151 
	C664.449890,648.901428 630.049683,706.193298 606.461548,770.076111 
	C587.736755,820.787537 577.722229,873.259094 574.683350,927.126526 
	C574.239990,934.986267 574.621887,942.892517 574.621887,951.086914 
	C585.476929,951.086914 594.944580,951.086914 605.204712,951.086914 
	C608.056030,815.690979 655.073303,698.564270 750.244324,602.761780 
	C845.544800,506.829132 962.428833,458.037964 1097.477661,456.809631 
	C1202.664429,455.852875 1299.645630,486.060669 1384.871704,548.324036 
	C1520.836060,647.655212 1588.656860,783.511963 1594.594727,951.725403 
	C1600.596436,951.725403 1605.877197,951.725403 1611.157837,951.725403 
	C1616.372681,951.725403 1621.587524,951.725403 1627.757690,951.725403 
	C1627.757690,947.092590 1627.918091,943.828125 1627.729004,940.583984 
	C1627.032104,928.631165 1626.463501,916.663635 1625.410278,904.740112 
	C1619.114868,833.461182 1599.185669,766.191223 1565.403809,703.106750 
	C1526.200928,629.898743 1472.588745,569.311584 1405.063721,521.010315 
	C1354.400513,484.770386 1298.880127,458.771576 1237.293091,441.860626 
M965.994324,611.053101 
	C803.022400,677.450867 734.900696,838.389893 742.187195,951.112427 
	C753.695923,951.112427 765.205444,951.112427 777.564697,951.112427 
	C777.260193,862.125427 806.085388,784.376160 866.908081,720.032104 
	C927.867981,655.543030 1003.917480,621.810913 1092.552490,619.047852 
	C1163.244019,616.844177 1228.549072,636.154236 1286.139648,677.576904 
	C1379.338867,744.611328 1423.617432,837.296692 1425.147095,951.216675 
	C1437.338379,951.216675 1448.550781,951.216675 1460.525024,951.216675 
	C1460.711304,947.502197 1461.078491,944.245422 1461.004272,940.998718 
	C1460.501831,918.997803 1458.646362,897.119995 1453.967407,875.580811 
	C1428.668701,759.122437 1363.109009,673.565125 1256.355103,620.415955 
	C1199.036621,591.878967 1137.879395,581.413635 1074.078491,585.929810 
	C1037.232056,588.537964 1001.746765,596.983765 965.994324,611.053101 
M1572.999878,1244.373169 
	C1631.505859,1244.373169 1690.011841,1244.373169 1748.889282,1244.373169 
	C1755.224976,1209.446777 1759.202881,1175.675659 1759.773071,1141.611694 
	C1745.713379,1139.435059 1391.633423,1140.070923 1384.716919,1142.135498 
	C1383.321899,1175.871704 1381.927002,1209.607910 1380.489502,1244.373169 
	C1444.557129,1244.373169 1507.778442,1244.373169 1572.999878,1244.373169 
M465.648468,1244.369507 
	C583.596985,1244.205322 701.545471,1244.041382 819.493896,1243.855591 
	C819.766785,1243.855103 820.057434,1243.555664 820.306702,1243.354614 
	C820.564514,1243.146606 820.781677,1242.888184 821.283142,1242.384033 
	C819.802612,1208.897339 818.310669,1175.154419 816.807617,1141.158813 
	C693.445923,1141.158813 570.713867,1141.158813 447.696533,1141.158813 
	C447.440308,1143.432739 446.984650,1145.071777 447.117493,1146.661621 
	C448.890076,1167.872437 450.554565,1189.095459 452.667297,1210.273315 
	C453.591492,1219.537354 455.530609,1228.697144 456.895355,1237.921143 
	C457.500793,1242.012939 458.913300,1244.983643 465.648468,1244.369507 
M1728.811279,1277.789307 
	C1611.938599,1277.789307 1495.066040,1277.789307 1377.696533,1277.789307 
	C1373.500732,1311.333008 1369.392944,1344.172485 1365.202148,1377.676636 
	C1479.904785,1377.676636 1593.980713,1377.676636 1708.759644,1377.676636 
	C1722.094482,1345.564453 1733.443481,1312.891846 1741.276611,1277.789795 
	C1736.667358,1277.789795 1733.713135,1277.789795 1728.811279,1277.789307 
M820.239075,1277.837402 
	C702.372864,1277.837402 584.506714,1277.837402 465.509583,1277.837402 
	C473.942627,1313.154175 484.829346,1346.104614 498.341431,1377.563477 
	C611.510925,1377.563477 723.340820,1377.563477 835.216064,1377.563477 
	C835.421692,1375.906494 835.739685,1374.920044 835.631958,1373.982666 
	C832.214233,1344.226440 828.809021,1314.468384 825.197998,1284.735474 
	C824.914978,1282.404907 823.152283,1280.253906 820.239075,1277.837402 
M1509.000000,1512.287231 
	C1546.956055,1512.286865 1584.913330,1512.119019 1622.866821,1512.435791 
	C1629.968506,1512.495117 1634.238525,1510.220581 1638.356201,1504.361694 
	C1657.729248,1476.797974 1674.931641,1447.973389 1690.267700,1418.010254 
	C1691.090576,1416.402466 1691.129395,1414.393433 1691.547607,1412.505859 
	C1673.771484,1410.626099 1365.947144,1411.413208 1359.087402,1413.223511 
	C1351.638794,1445.991821 1344.218994,1478.633667 1336.569092,1512.287231 
	C1393.904541,1512.287231 1450.452271,1512.287231 1509.000000,1512.287231 
M794.999939,1512.287720 
	C818.075378,1511.939941 841.188049,1513.013916 864.814331,1511.677368 
	C856.949280,1477.753906 849.380005,1445.106445 841.800720,1412.415649 
	C732.831726,1412.415649 624.403320,1412.415649 514.493225,1412.415649 
	C516.884766,1417.585327 518.609192,1421.795288 520.721313,1425.800781 
	C534.876831,1452.645630 550.782288,1478.410278 568.014404,1503.401733 
	C572.426697,1509.800781 577.039307,1512.525024 585.068481,1512.485352 
	C654.377563,1512.142090 723.689087,1512.287842 794.999939,1512.287720 
M1569.144043,1586.143921 
	C1581.246948,1574.042114 1593.076172,1561.701294 1604.809204,1546.968018 
	C1510.767456,1546.968018 1418.704590,1546.968018 1326.964722,1546.968018 
	C1314.631348,1580.057129 1302.474731,1612.672119 1290.175537,1645.669434 
	C1292.597412,1645.887939 1294.554565,1646.218018 1296.512085,1646.218750 
	C1362.478271,1646.246826 1428.444702,1646.196777 1494.410522,1646.337402 
	C1499.460571,1646.348145 1503.377197,1644.831299 1507.024780,1641.570923 
	C1527.364014,1623.390503 1547.766235,1605.280762 1569.144043,1586.143921 
M836.999939,1646.248047 
	C849.318298,1646.248047 861.638855,1646.395752 873.954285,1646.206055 
	C886.044250,1646.019775 898.199097,1647.062134 910.450928,1645.505615 
	C898.129272,1612.057495 886.123718,1579.467529 873.938782,1546.390503 
	C785.980103,1546.390503 698.116821,1546.388672 610.253540,1546.404419 
	C608.597107,1546.404785 606.938110,1546.588135 605.287109,1546.753296 
	C605.049011,1546.777222 604.820923,1547.162231 604.639343,1547.416382 
	C604.455322,1547.674194 604.334595,1547.977051 603.972229,1548.668457 
	C605.179749,1550.358765 606.351562,1552.360229 607.862366,1554.060303 
	C635.767761,1585.460938 665.756409,1614.662598 698.805664,1640.684326 
	C703.789124,1644.608032 708.755310,1646.404175 715.145935,1646.366577 
	C755.096069,1646.130859 795.048340,1646.247803 836.999939,1646.248047 
M883.084167,1244.380127 
	C949.980774,1244.380127 1016.877380,1244.380127 1084.311523,1244.380127 
	C1084.311523,1209.429077 1084.311523,1175.345337 1084.311523,1141.164185 
	C1007.809937,1141.164185 932.051758,1141.164185 855.803406,1141.164185 
	C856.431519,1175.944336 858.525085,1209.880127 861.837769,1244.380249 
	C869.204102,1244.380249 875.163086,1244.380249 883.084167,1244.380127 
M1165.000244,1140.460938 
	C1150.096313,1140.460938 1135.192383,1140.460938 1120.534790,1140.460938 
	C1118.317627,1150.604980 1118.507446,1235.942627 1120.560791,1243.684204 
	C1192.289551,1243.684204 1264.038818,1243.684204 1336.477905,1243.684204 
	C1339.176392,1209.324829 1340.255981,1175.569824 1340.466064,1140.461060 
	C1281.998291,1140.461060 1224.499268,1140.461060 1165.000244,1140.460938 
M1029.000000,1378.279419 
	C1047.274292,1378.279419 1065.548462,1378.279419 1084.427002,1378.279419 
	C1084.427002,1344.571533 1084.427002,1311.750977 1084.427002,1278.479370 
	C1011.217712,1278.479370 938.510132,1278.479370 865.004395,1278.479370 
	C868.361633,1312.202271 872.545410,1345.006226 878.359924,1378.279419 
	C928.486755,1378.279419 977.743408,1378.279419 1029.000000,1378.279419 
M1329.908691,1316.698730 
	C1330.643433,1303.961060 1333.697388,1291.352783 1333.004028,1278.586670 
	C1315.464844,1276.678101 1127.096924,1277.433105 1119.906372,1279.331909 
	C1118.055420,1292.557617 1118.636719,1370.546265 1120.638550,1377.563232 
	C1138.285767,1379.517578 1313.837280,1378.674805 1321.720337,1376.339844 
	C1324.317505,1357.310547 1326.966675,1337.899048 1329.908691,1316.698730 
M1018.999939,1512.295166 
	C1040.604004,1512.295166 1062.208130,1512.295166 1083.612305,1512.295166 
	C1086.007812,1500.762817 1085.496948,1419.283203 1083.179321,1412.374146 
	C1061.494751,1410.385498 892.097107,1411.298218 884.326416,1413.625488 
	C890.505005,1446.514893 897.381531,1479.289429 906.636658,1512.295166 
	C943.811096,1512.295166 980.405518,1512.295166 1018.999939,1512.295166 
M1193.000000,1411.777344 
	C1168.749878,1411.777344 1144.499756,1411.777344 1120.438843,1411.777344 
	C1118.120361,1422.849365 1118.552612,1504.537842 1120.866211,1511.879639 
	C1177.617310,1511.879639 1234.450928,1511.879639 1292.057007,1511.879639 
	C1301.062500,1479.140625 1309.100952,1446.416260 1314.947388,1411.777344 
	C1274.046265,1411.777344 1234.523193,1411.777344 1193.000000,1411.777344 
M937.650024,890.626953 
	C931.304016,909.271423 927.854065,928.337280 928.332703,948.674683 
	C939.812256,948.674683 950.342834,948.674683 961.834106,948.674683 
	C963.134766,923.217651 968.412292,899.049194 981.457642,877.074768 
	C994.328003,855.395264 1011.585999,838.214417 1033.428467,825.642639 
	C1055.623535,812.868103 1079.644653,806.679993 1105.136475,807.345398 
	C1137.503662,808.190430 1166.542114,818.880798 1191.377808,839.813843 
	C1224.894043,868.063293 1240.925049,904.870789 1242.455444,948.925110 
	C1253.610229,949.339722 1264.055054,949.519775 1274.292847,948.892212 
	C1274.764404,946.693298 1275.068359,945.736511 1275.154419,944.760498 
	C1275.271362,943.436401 1275.311035,942.092102 1275.229370,940.765869 
	C1273.530029,913.125122 1266.657471,887.010193 1253.166626,862.626953 
	C1212.333130,788.825256 1122.477173,754.807556 1043.305420,783.777954 
	C992.036560,802.538269 957.361633,838.219482 937.650024,890.626953 
M935.286682,1601.867432 
	C941.399292,1616.563232 947.511841,1631.259033 953.489624,1645.630859 
	C997.805237,1645.630859 1040.908203,1645.630859 1083.899658,1645.630859 
	C1086.116821,1632.646118 1085.467163,1553.695679 1083.197388,1546.978516 
	C1028.090332,1546.978516 972.983337,1546.978516 916.474792,1546.978516 
	C922.174622,1565.613647 927.960083,1583.171997 935.286682,1601.867432 
M1118.991455,1632.652100 
	C1118.991455,1636.894531 1118.991455,1641.137085 1118.991455,1645.381470 
	C1121.511841,1645.791138 1122.805786,1646.183960 1124.100098,1646.185425 
	C1162.027832,1646.227173 1199.956055,1646.126953 1237.882446,1646.355957 
	C1243.261719,1646.388428 1245.675659,1643.965332 1247.347168,1639.511475 
	C1258.092773,1610.880371 1268.919067,1582.279419 1279.618042,1553.631104 
	C1280.353516,1551.662109 1280.272461,1549.388306 1280.633179,1546.812012 
	C1226.693604,1546.812012 1173.568115,1546.812012 1118.991577,1546.812012 
	C1118.991577,1575.049927 1118.991577,1602.887939 1118.991455,1632.652100 
M1254.037964,1710.860229 
	C1240.627686,1732.188110 1225.159546,1751.953735 1207.056274,1770.731079 
	C1253.048218,1773.683105 1430.460693,1706.718994 1447.516968,1680.324585 
	C1390.706543,1680.324585 1334.141357,1680.361328 1277.576660,1680.250732 
	C1273.306396,1680.242432 1270.876221,1681.972168 1268.892334,1685.505615 
	C1264.333618,1693.625488 1259.520020,1701.602173 1254.037964,1710.860229 
M947.026123,1761.722900 
	C961.150146,1764.822388 975.096985,1768.919434 991.203735,1770.165894 
	C988.907715,1766.810303 987.733215,1764.501099 986.027954,1762.692017 
	C965.083130,1740.472900 948.780762,1714.973877 933.965942,1688.491577 
	C930.655579,1682.574097 927.073730,1680.092896 920.035767,1680.138306 
	C869.418579,1680.465332 818.798340,1680.313354 768.179016,1680.313599 
	C765.352844,1680.313599 762.526672,1680.313721 759.700562,1680.313721 
	C759.573792,1681.116089 759.447021,1681.918457 759.320312,1682.720825 
	C817.112976,1718.791504 879.189392,1744.890625 947.026123,1761.722900 
M1075.333984,1046.999634 
	C1075.333984,1071.850708 1075.333984,1096.701782 1075.333984,1121.981812 
	C1092.241821,1121.981812 1107.970337,1121.981812 1124.031494,1121.981812 
	C1124.031494,1064.566162 1124.031494,1007.848694 1124.031494,950.661987 
	C1107.711914,950.661987 1091.972900,950.661987 1075.333984,950.661987 
	C1075.333984,982.563599 1075.333984,1013.781555 1075.333984,1046.999634 
M1085.090820,1721.001465 
	C1085.090820,1707.780273 1085.090820,1694.559204 1085.090820,1681.594482 
	C1071.569824,1679.242554 980.668213,1679.877686 973.686218,1682.347534 
	C982.456055,1698.158936 992.849060,1712.696289 1004.433350,1726.371826 
	C1023.386780,1748.747437 1045.465210,1767.044067 1073.218140,1777.633301 
	C1076.484009,1778.879272 1079.978027,1779.528198 1085.090576,1780.925049 
	C1085.090576,1760.624390 1085.090576,1741.812866 1085.090820,1721.001465 
M1129.560181,1680.322998 
	C1126.361450,1680.504272 1123.162720,1680.685669 1120.163452,1680.855591 
	C1117.979126,1694.146118 1118.571899,1772.614990 1120.768188,1779.525635 
	C1140.760498,1777.266479 1163.264160,1764.268066 1184.155640,1742.911987 
	C1202.142700,1724.524780 1224.193848,1691.130249 1225.203491,1680.322388 
	C1193.923950,1680.322388 1162.687988,1680.322388 1129.560181,1680.322998 
z"/>
<path fill="#F9FDFB" opacity="1.000000" stroke="none" 
	d="
M1238.085693,442.044617 
	C1298.880127,458.771576 1354.400513,484.770386 1405.063721,521.010315 
	C1472.588745,569.311584 1526.200928,629.898743 1565.403809,703.106750 
	C1599.185669,766.191223 1619.114868,833.461182 1625.410278,904.740112 
	C1626.463501,916.663635 1627.032104,928.631165 1627.729004,940.583984 
	C1627.918091,943.828125 1627.757690,947.092590 1627.757690,951.725403 
	C1621.587524,951.725403 1616.372681,951.725403 1611.157837,951.725403 
	C1605.877197,951.725403 1600.596436,951.725403 1594.594727,951.725403 
	C1588.656860,783.511963 1520.836060,647.655212 1384.871704,548.324036 
	C1299.645630,486.060669 1202.664429,455.852875 1097.477661,456.809631 
	C962.428833,458.037964 845.544800,506.829132 750.244324,602.761780 
	C655.073303,698.564270 608.056030,815.690979 605.204712,951.086914 
	C594.944580,951.086914 585.476929,951.086914 574.621887,951.086914 
	C574.621887,942.892517 574.239990,934.986267 574.683350,927.126526 
	C577.722229,873.259094 587.736755,820.787537 606.461548,770.076111 
	C630.049683,706.193298 664.449890,648.901428 710.220886,598.392151 
	C772.385254,529.792480 847.074951,480.314575 934.826294,450.769165 
	C972.530457,438.074402 1011.248779,428.724060 1050.931885,426.678833 
	C1113.581665,423.449921 1176.238403,423.822510 1238.085693,442.044617 
z"/>
<path fill="#F9FDFC" opacity="1.000000" stroke="none" 
	d="
M966.689575,610.717407 
	C1001.746765,596.983765 1037.232056,588.537964 1074.078491,585.929810 
	C1137.879395,581.413635 1199.036621,591.878967 1256.355103,620.415955 
	C1363.109009,673.565125 1428.668701,759.122437 1453.967407,875.580811 
	C1458.646362,897.119995 1460.501831,918.997803 1461.004272,940.998718 
	C1461.078491,944.245422 1460.711304,947.502197 1460.525024,951.216675 
	C1448.550781,951.216675 1437.338379,951.216675 1425.147095,951.216675 
	C1423.617432,837.296692 1379.338867,744.611328 1286.139648,677.576904 
	C1228.549072,636.154236 1163.244019,616.844177 1092.552490,619.047852 
	C1003.917480,621.810913 927.867981,655.543030 866.908081,720.032104 
	C806.085388,784.376160 777.260193,862.125427 777.564697,951.112427 
	C765.205444,951.112427 753.695923,951.112427 742.187195,951.112427 
	C734.900696,838.389893 803.022400,677.450867 966.689575,610.717407 
z"/>
<path fill="#FCFEFE" opacity="1.000000" stroke="none" 
	d="
M1571.999756,1244.373169 
	C1507.778442,1244.373169 1444.557129,1244.373169 1380.489502,1244.373169 
	C1381.927002,1209.607910 1383.321899,1175.871704 1384.714355,1142.133545 
	C1391.633423,1140.070923 1745.713379,1139.435059 1759.773071,1141.611694 
	C1759.202881,1175.675659 1755.224976,1209.446777 1748.889282,1244.373169 
	C1690.011841,1244.373169 1631.505859,1244.373169 1571.999756,1244.373169 
z"/>
<path fill="#FCFEFE" opacity="1.000000" stroke="none" 
	d="
M464.725281,1244.363525 
	C458.913300,1244.983643 457.500793,1242.012939 456.895355,1237.921143 
	C455.530609,1228.697144 453.591492,1219.537354 452.667297,1210.273315 
	C450.554565,1189.095459 448.890076,1167.872437 447.117493,1146.661621 
	C446.984650,1145.071777 447.440308,1143.432739 447.696533,1141.158813 
	C570.713867,1141.158813 693.445923,1141.158813 816.807617,1141.158813 
	C818.310669,1175.154419 819.802612,1208.897339 821.283142,1242.384033 
	C820.781677,1242.888184 820.564514,1243.146606 820.306702,1243.354614 
	C820.057434,1243.555664 819.766785,1243.855103 819.493896,1243.855591 
	C701.545471,1244.041382 583.596985,1244.205322 464.725281,1244.363525 
z"/>
<path fill="#FDFEFE" opacity="1.000000" stroke="none" 
	d="
M1729.785034,1277.789551 
	C1733.713135,1277.789795 1736.667358,1277.789795 1741.276611,1277.789795 
	C1733.443481,1312.891846 1722.094482,1345.564453 1708.759644,1377.676636 
	C1593.980713,1377.676636 1479.904785,1377.676636 1365.202148,1377.676636 
	C1369.392944,1344.172485 1373.500732,1311.333008 1377.696533,1277.789307 
	C1495.066040,1277.789307 1611.938599,1277.789307 1729.785034,1277.789551 
z"/>
<path fill="#FDFEFE" opacity="1.000000" stroke="none" 
	d="
M821.158203,1277.928467 
	C823.152283,1280.253906 824.914978,1282.404907 825.197998,1284.735474 
	C828.809021,1314.468384 832.214233,1344.226440 835.631958,1373.982666 
	C835.739685,1374.920044 835.421692,1375.906494 835.216064,1377.563477 
	C723.340820,1377.563477 611.510925,1377.563477 498.341431,1377.563477 
	C484.829346,1346.104614 473.942627,1313.154175 465.509583,1277.837402 
	C584.506714,1277.837402 702.372864,1277.837402 821.158203,1277.928467 
z"/>
<path fill="#FDFEFE" opacity="1.000000" stroke="none" 
	d="
M1508.000000,1512.287231 
	C1450.452271,1512.287231 1393.904541,1512.287231 1336.569092,1512.287231 
	C1344.218994,1478.633667 1351.638794,1445.991821 1359.087402,1413.223511 
	C1365.947144,1411.413208 1673.771484,1410.626099 1691.547607,1412.505859 
	C1691.129395,1414.393433 1691.090576,1416.402466 1690.267700,1418.010254 
	C1674.931641,1447.973389 1657.729248,1476.797974 1638.356201,1504.361694 
	C1634.238525,1510.220581 1629.968506,1512.495117 1622.866821,1512.435791 
	C1584.913330,1512.119019 1546.956055,1512.286865 1508.000000,1512.287231 
z"/>
<path fill="#FDFEFE" opacity="1.000000" stroke="none" 
	d="
M793.999878,1512.287720 
	C723.689087,1512.287842 654.377563,1512.142090 585.068481,1512.485352 
	C577.039307,1512.525024 572.426697,1509.800781 568.014404,1503.401733 
	C550.782288,1478.410278 534.876831,1452.645630 520.721313,1425.800781 
	C518.609192,1421.795288 516.884766,1417.585327 514.493225,1412.415649 
	C624.403320,1412.415649 732.831726,1412.415649 841.800720,1412.415649 
	C849.380005,1445.106445 856.949280,1477.753906 864.814331,1511.677368 
	C841.188049,1513.013916 818.075378,1511.939941 793.999878,1512.287720 
z"/>
<path fill="#FCFEFD" opacity="1.000000" stroke="none" 
	d="
M1568.645508,1586.645264 
	C1547.766235,1605.280762 1527.364014,1623.390503 1507.024780,1641.570923 
	C1503.377197,1644.831299 1499.460571,1646.348145 1494.410522,1646.337402 
	C1428.444702,1646.196777 1362.478271,1646.246826 1296.512085,1646.218750 
	C1294.554565,1646.218018 1292.597412,1645.887939 1290.175537,1645.669434 
	C1302.474731,1612.672119 1314.631348,1580.057129 1326.964722,1546.968018 
	C1418.704590,1546.968018 1510.767456,1546.968018 1604.809204,1546.968018 
	C1593.076172,1561.701294 1581.246948,1574.042114 1568.645508,1586.645264 
z"/>
<path fill="#FBFEFD" opacity="1.000000" stroke="none" 
	d="
M835.999878,1646.248047 
	C795.048340,1646.247803 755.096069,1646.130859 715.145935,1646.366577 
	C708.755310,1646.404175 703.789124,1644.608032 698.805664,1640.684326 
	C665.756409,1614.662598 635.767761,1585.460938 607.862366,1554.060303 
	C606.351562,1552.360229 605.179749,1550.358765 603.972229,1548.668457 
	C604.334595,1547.977051 604.455322,1547.674194 604.639343,1547.416382 
	C604.820923,1547.162231 605.049011,1546.777222 605.287109,1546.753296 
	C606.938110,1546.588135 608.597107,1546.404785 610.253540,1546.404419 
	C698.116821,1546.388672 785.980103,1546.390503 873.938782,1546.390503 
	C886.123718,1579.467529 898.129272,1612.057495 910.450928,1645.505615 
	C898.199097,1647.062134 886.044250,1646.019775 873.954285,1646.206055 
	C861.638855,1646.395752 849.318298,1646.248047 835.999878,1646.248047 
z"/>
<path fill="#FBFEFD" opacity="1.000000" stroke="none" 
	d="
M882.103149,1244.380127 
	C875.163086,1244.380249 869.204102,1244.380249 861.837769,1244.380249 
	C858.525085,1209.880127 856.431519,1175.944336 855.803406,1141.164185 
	C932.051758,1141.164185 1007.809937,1141.164185 1084.311523,1141.164185 
	C1084.311523,1175.345337 1084.311523,1209.429077 1084.311523,1244.380127 
	C1016.877380,1244.380127 949.980774,1244.380127 882.103149,1244.380127 
z"/>
<path fill="#FCFEFE" opacity="1.000000" stroke="none" 
	d="
M1166.000244,1140.460938 
	C1224.499268,1140.461060 1281.998291,1140.461060 1340.466064,1140.461060 
	C1340.255981,1175.569824 1339.176392,1209.324829 1336.477905,1243.684204 
	C1264.038818,1243.684204 1192.289551,1243.684204 1120.560791,1243.684204 
	C1118.507446,1235.942627 1118.317627,1150.604980 1120.534790,1140.460938 
	C1135.192383,1140.460938 1150.096313,1140.460938 1166.000244,1140.460938 
z"/>
<path fill="#FCFEFD" opacity="1.000000" stroke="none" 
	d="
M1028.000000,1378.279419 
	C977.743408,1378.279419 928.486755,1378.279419 878.359924,1378.279419 
	C872.545410,1345.006226 868.361633,1312.202271 865.004395,1278.479370 
	C938.510132,1278.479370 1011.217712,1278.479370 1084.427002,1278.479370 
	C1084.427002,1311.750977 1084.427002,1344.571533 1084.427002,1378.279419 
	C1065.548462,1378.279419 1047.274292,1378.279419 1028.000000,1378.279419 
z"/>
<path fill="#FDFEFE" opacity="1.000000" stroke="none" 
	d="
M1329.762329,1317.593140 
	C1326.966675,1337.899048 1324.317505,1357.310547 1321.720337,1376.339844 
	C1313.837280,1378.674805 1138.285767,1379.517578 1120.638550,1377.563232 
	C1118.636719,1370.546265 1118.055420,1292.557617 1119.906372,1279.331909 
	C1127.096924,1277.433105 1315.464844,1276.678101 1333.004028,1278.586670 
	C1333.697388,1291.352783 1330.643433,1303.961060 1329.762329,1317.593140 
z"/>
<path fill="#FCFEFD" opacity="1.000000" stroke="none" 
	d="
M1017.999878,1512.295166 
	C980.405518,1512.295166 943.811096,1512.295166 906.636658,1512.295166 
	C897.381531,1479.289429 890.505005,1446.514893 884.326416,1413.625488 
	C892.097107,1411.298218 1061.494751,1410.385498 1083.179321,1412.374146 
	C1085.496948,1419.283203 1086.007812,1500.762817 1083.612305,1512.295166 
	C1062.208130,1512.295166 1040.604004,1512.295166 1017.999878,1512.295166 
z"/>
<path fill="#FDFEFE" opacity="1.000000" stroke="none" 
	d="
M1194.000000,1411.777344 
	C1234.523193,1411.777344 1274.046265,1411.777344 1314.947388,1411.777344 
	C1309.100952,1446.416260 1301.062500,1479.140625 1292.057007,1511.879639 
	C1234.450928,1511.879639 1177.617310,1511.879639 1120.866211,1511.879639 
	C1118.552612,1504.537842 1118.120361,1422.849365 1120.438843,1411.777344 
	C1144.499756,1411.777344 1168.749878,1411.777344 1194.000000,1411.777344 
z"/>
<path fill="#F8FCFB" opacity="1.000000" stroke="none" 
	d="
M937.875916,889.874207 
	C957.361633,838.219482 992.036560,802.538269 1043.305420,783.777954 
	C1122.477173,754.807556 1212.333130,788.825256 1253.166626,862.626953 
	C1266.657471,887.010193 1273.530029,913.125122 1275.229370,940.765869 
	C1275.311035,942.092102 1275.271362,943.436401 1275.154419,944.760498 
	C1275.068359,945.736511 1274.764404,946.693298 1274.292847,948.892212 
	C1264.055054,949.519775 1253.610229,949.339722 1242.455444,948.925110 
	C1240.925049,904.870789 1224.894043,868.063293 1191.377808,839.813843 
	C1166.542114,818.880798 1137.503662,808.190430 1105.136475,807.345398 
	C1079.644653,806.679993 1055.623535,812.868103 1033.428467,825.642639 
	C1011.585999,838.214417 994.328003,855.395264 981.457642,877.074768 
	C968.412292,899.049194 963.134766,923.217651 961.834106,948.674683 
	C950.342834,948.674683 939.812256,948.674683 928.332703,948.674683 
	C927.854065,928.337280 931.304016,909.271423 937.875916,889.874207 
z"/>
<path fill="#FAFDFC" opacity="1.000000" stroke="none" 
	d="
M935.004883,1601.143066 
	C927.960083,1583.171997 922.174622,1565.613647 916.474792,1546.978516 
	C972.983337,1546.978516 1028.090332,1546.978516 1083.198486,1546.973999 
	C1085.467163,1553.695679 1086.116821,1632.646118 1083.899658,1645.630859 
	C1040.908203,1645.630859 997.805237,1645.630859 953.489624,1645.630859 
	C947.511841,1631.259033 941.399292,1616.563232 935.004883,1601.143066 
z"/>
<path fill="#FCFEFD" opacity="1.000000" stroke="none" 
	d="
M1118.991455,1631.688965 
	C1118.991577,1602.887939 1118.991577,1575.049927 1118.991577,1546.812012 
	C1173.568115,1546.812012 1226.693604,1546.812012 1280.633179,1546.812012 
	C1280.272461,1549.388306 1280.353516,1551.662109 1279.618042,1553.631104 
	C1268.919067,1582.279419 1258.092773,1610.880371 1247.347168,1639.511475 
	C1245.675659,1643.965332 1243.261719,1646.388428 1237.882446,1646.355957 
	C1199.956055,1646.126953 1162.027832,1646.227173 1124.100098,1646.185425 
	C1122.805786,1646.183960 1121.511841,1645.791138 1118.991455,1645.381470 
	C1118.991455,1641.137085 1118.991455,1636.894531 1118.991455,1631.688965 
z"/>
<path fill="#F9FDFC" opacity="1.000000" stroke="none" 
	d="
M1254.423828,1710.248657 
	C1259.520020,1701.602173 1264.333618,1693.625488 1268.892334,1685.505615 
	C1270.876221,1681.972168 1273.306396,1680.242432 1277.576660,1680.250732 
	C1334.141357,1680.361328 1390.706543,1680.324585 1447.516968,1680.324585 
	C1430.460693,1706.718994 1253.048218,1773.683105 1207.056274,1770.731079 
	C1225.159546,1751.953735 1240.627686,1732.188110 1254.423828,1710.248657 
z"/>
<path fill="#F9FDFB" opacity="1.000000" stroke="none" 
	d="
M946.221313,1761.525391 
	C879.189392,1744.890625 817.112976,1718.791504 759.320312,1682.720825 
	C759.447021,1681.918457 759.573792,1681.116089 759.700562,1680.313721 
	C762.526672,1680.313721 765.352844,1680.313599 768.179016,1680.313599 
	C818.798340,1680.313354 869.418579,1680.465332 920.035767,1680.138306 
	C927.073730,1680.092896 930.655579,1682.574097 933.965942,1688.491577 
	C948.780762,1714.973877 965.083130,1740.472900 986.027954,1762.692017 
	C987.733215,1764.501099 988.907715,1766.810303 991.203735,1770.165894 
	C975.096985,1768.919434 961.150146,1764.822388 946.221313,1761.525391 
z"/>
<path fill="#FDFEFE" opacity="1.000000" stroke="none" 
	d="
M1075.333984,1045.999512 
	C1075.333984,1013.781555 1075.333984,982.563599 1075.333984,950.661987 
	C1091.972900,950.661987 1107.711914,950.661987 1124.031494,950.661987 
	C1124.031494,1007.848694 1124.031494,1064.566162 1124.031494,1121.981812 
	C1107.970337,1121.981812 1092.241821,1121.981812 1075.333984,1121.981812 
	C1075.333984,1096.701782 1075.333984,1071.850708 1075.333984,1045.999512 
z"/>
<path fill="#F7FCFB" opacity="1.000000" stroke="none" 
	d="
M1085.090698,1722.001343 
	C1085.090576,1741.812866 1085.090576,1760.624390 1085.090576,1780.925049 
	C1079.978027,1779.528198 1076.484009,1778.879272 1073.218140,1777.633301 
	C1045.465210,1767.044067 1023.386780,1748.747437 1004.433350,1726.371826 
	C992.849060,1712.696289 982.456055,1698.158936 973.686218,1682.347534 
	C980.668213,1679.877686 1071.569824,1679.242554 1085.090820,1681.594482 
	C1085.090820,1694.559204 1085.090820,1707.780273 1085.090698,1722.001343 
z"/>
<path fill="#FAFDFC" opacity="1.000000" stroke="none" 
	d="
M1130.506104,1680.322754 
	C1162.687988,1680.322388 1193.923950,1680.322388 1225.203491,1680.322388 
	C1224.193848,1691.130249 1202.142700,1724.524780 1184.155640,1742.911987 
	C1163.264160,1764.268066 1140.760498,1777.266479 1120.768188,1779.525635 
	C1118.571899,1772.614990 1117.979126,1694.146118 1120.163452,1680.855591 
	C1123.162720,1680.685669 1126.361450,1680.504272 1130.506104,1680.322754 
z"/>
</svg>