<?xml version="1.0" encoding="utf-8"?>
<svg xmlns="http://www.w3.org/2000/svg" viewBox="0 0 500 500">
  <g id="Layer_1">
    <path fill="#0EA479" opacity="1.000000" stroke="none" d="M 1152.84 262.419 C 1148.64 331.619 1138.24 398.867 1120.68 464.975 C 1104.05 527.565 1081.8 588.045 1053.76 646.459 C 1018.72 719.465 975.645 787.34 924.294 849.872 C 906.375 871.694 887.083 892.413 867.983 913.237 C 840.952 942.708 811.233 969.426 780.396 994.767 C 741.265 1026.92 699.931 1056.13 656.397 1082.1 C 584.889 1124.78 509.399 1158.45 429.698 1182.71 C 375.15 1199.32 319.622 1211.03 263.125 1218.72 C 202.886 1226.92 142.427 1228 81.851 1225.91 C -0.673 1223.07 -81.449 1208.84 -160.56 1185.65 C -213.64 1170.09 -265.08 1149.97 -315 1125.89 C -387.95 1090.71 -455.71 1047.48 -518.25 996.169 C -540.34 978.044 -561.3 958.489 -582.14 938.914 C -629.35 894.582 -670.72 845.16 -708.06 792.315 C -734.42 755.007 -758 716.026 -779.16 675.526 C -820.87 595.676 -851.51 511.761 -870.48 423.778 C -877.82 389.707 -882.78 355.068 -887.56 320.514 C -895.16 265.617 -895.02 210.326 -893.11 155.082 C -890.36 75.263 -876.94 -2.936 -855.1 -79.668 C -840.96 -129.35 -822.96 -177.65 -801.37 -224.63 C -778.66 -274.04 -752.28 -321.37 -722 -366.5 C -692.84 -409.96 -660.57 -450.97 -625.2 -489.62 C -567.59 -552.56 -503.17 -607.52 -431.78 -654.07 C -403.1 -672.78 -373.21 -689.79 -342.98 -705.92 C -256.32 -752.14 -164.32 -783.64 -68.014 -802.59 C -30.158 -810.04 8.047 -814.93 46.522 -818.28 C 87.082 -821.81 127.705 -822.58 168.242 -821.1 C 256.689 -817.85 343.463 -803.56 428.252 -777.7 C 485.087 -760.37 540.111 -738.49 593.049 -711.62 C 656.176 -679.58 715.722 -641.71 770.504 -596.8 C 795.689 -576.15 819.851 -554.18 843.605 -531.89 C 898.953 -479.93 946.342 -421.18 987.879 -357.79 C 1040.75 -277.11 1081.37 -190.57 1109.56 -98.239 C 1127.19 -40.498 1140.17 18.219 1146.78 78.238 C 1149.47 102.658 1151.61 127.188 1152.67 151.726 C 1153.92 180.647 1153.86 209.63 1154.11 238.588 C 1154.18 246.208 1153.29 253.837 1152.84 262.419 M 263.819 -457.86 C 202.764 -475.89 140.108 -476.27 77.458 -473.04 C 37.775 -470.99 -0.944 -461.64 -38.648 -448.95 C -126.4 -419.4 -201.09 -369.93 -263.25 -301.33 C -309.02 -250.82 -343.42 -193.52 -367.01 -129.64 C -385.74 -78.93 -395.75 -26.459 -398.79 27.409 C -399.23 35.269 -398.85 43.175 -398.85 51.369 C -388 51.369 -378.53 51.369 -368.27 51.369 C -365.42 -84.027 -318.4 -201.15 -223.23 -296.96 C -127.93 -392.89 -11.045 -441.68 124.004 -442.91 C 229.19 -443.87 326.172 -413.66 411.398 -351.39 C 547.362 -252.06 615.183 -116.21 621.121 52.008 C 627.122 52.008 632.403 52.008 637.684 52.008 C 642.899 52.008 648.114 52.008 654.284 52.008 C 654.284 47.375 654.444 44.11 654.255 40.866 C 653.558 28.913 652.99 16.946 651.936 5.022 C 645.641 -66.257 625.712 -133.53 591.93 -196.61 C 552.727 -269.82 499.115 -330.41 431.59 -378.71 C 380.927 -414.95 325.406 -440.95 263.819 -457.86 M -7.48 -288.67 C -170.45 -222.27 -238.57 -61.328 -231.29 51.395 C -219.78 51.395 -208.27 51.395 -195.91 51.395 C -196.21 -37.592 -167.39 -115.34 -106.57 -179.69 C -45.606 -244.18 30.443 -277.91 119.078 -280.67 C 189.77 -282.87 255.075 -263.56 312.666 -222.14 C 405.865 -155.11 450.143 -62.421 451.673 51.499 C 463.864 51.499 475.077 51.499 487.051 51.499 C 487.237 47.784 487.604 44.528 487.53 41.281 C 487.028 19.28 485.172 -2.598 480.493 -24.137 C 455.195 -140.59 389.635 -226.15 282.881 -279.3 C 225.563 -307.84 164.405 -318.3 100.604 -313.79 C 63.758 -311.18 28.273 -302.73 -7.48 -288.67 M 599.526 344.655 C 658.032 344.655 716.538 344.655 775.415 344.655 C 781.751 309.729 785.729 275.958 786.299 241.894 C 772.239 239.717 418.159 240.353 411.243 242.418 C 409.848 276.154 408.453 309.89 407.016 344.655 C 471.083 344.655 534.304 344.655 599.526 344.655 M -507.83 344.652 C -389.88 344.488 -271.93 344.324 -153.98 344.138 C -153.71 344.137 -153.42 343.838 -153.17 343.637 C -152.91 343.429 -152.69 343.17 -152.19 342.666 C -153.67 309.18 -155.16 275.437 -156.67 241.441 C -280.03 241.441 -402.76 241.441 -525.78 241.441 C -526.03 243.715 -526.49 245.354 -526.36 246.944 C -524.58 268.155 -522.92 289.378 -520.81 310.556 C -519.88 319.82 -517.94 328.979 -516.58 338.203 C -515.97 342.295 -514.56 345.266 -507.83 344.652 M 755.337 378.072 C 638.465 378.072 521.592 378.072 404.223 378.072 C 400.027 411.615 395.919 444.455 391.728 477.959 C 506.431 477.959 620.507 477.959 735.286 477.959 C 748.62 445.847 759.969 413.174 767.803 378.072 C 763.193 378.072 760.239 378.072 755.337 378.072 M -153.24 378.12 C -271.1 378.12 -388.97 378.12 -507.96 378.12 C -499.53 413.436 -488.64 446.387 -475.13 477.846 C -361.96 477.846 -250.13 477.846 -138.26 477.846 C -138.05 476.189 -137.73 475.202 -137.84 474.265 C -141.26 444.509 -144.66 414.751 -148.28 385.018 C -148.56 382.687 -150.32 380.536 -153.24 378.12 M 535.526 612.57 C 573.482 612.569 611.439 612.401 649.393 612.718 C 656.495 612.777 660.765 610.503 664.882 604.644 C 684.255 577.08 701.458 548.256 716.794 518.293 C 717.617 516.685 717.655 514.676 718.074 512.788 C 700.297 510.908 392.473 511.695 385.613 513.506 C 378.165 546.274 370.745 578.916 363.095 612.57 C 420.431 612.57 476.978 612.57 535.526 612.57 M -178.47 612.57 C -155.4 612.222 -132.29 613.296 -108.66 611.96 C -116.53 578.036 -124.09 545.389 -131.67 512.698 C -240.64 512.698 -349.07 512.698 -458.98 512.698 C -456.59 517.868 -454.87 522.078 -452.75 526.083 C -438.6 552.928 -422.69 578.693 -405.46 603.684 C -401.05 610.083 -396.44 612.807 -388.41 612.768 C -319.1 612.424 -249.78 612.57 -178.47 612.57 M 595.67 686.426 C 607.773 674.324 619.602 661.984 631.335 647.25 C 537.293 647.25 445.231 647.25 353.491 647.25 C 341.157 680.339 329.001 712.954 316.702 745.952 C 319.123 746.17 321.081 746.5 323.038 746.501 C 389.004 746.529 454.971 746.479 520.937 746.62 C 525.987 746.63 529.903 745.114 533.551 741.853 C 553.89 723.673 574.292 705.563 595.67 686.426 M -136.47 746.53 C -124.16 746.53 -111.83 746.678 -99.52 746.488 C -87.43 746.302 -75.275 747.344 -63.023 745.788 C -75.345 712.34 -87.35 679.75 -99.53 646.673 C -187.49 646.673 -275.36 646.671 -363.22 646.687 C -364.88 646.687 -366.54 646.87 -368.19 647.036 C -368.43 647.06 -368.65 647.445 -368.83 647.699 C -369.02 647.956 -369.14 648.259 -369.5 648.951 C -368.29 650.641 -367.12 652.643 -365.61 654.343 C -337.71 685.743 -307.72 714.945 -274.67 740.967 C -269.69 744.89 -264.72 746.686 -258.33 746.649 C -218.38 746.413 -178.43 746.53 -136.47 746.53 M -90.39 344.662 C -23.493 344.662 43.403 344.662 110.838 344.662 C 110.838 309.711 110.838 275.628 110.838 241.446 C 34.336 241.446 -41.422 241.446 -117.67 241.446 C -117.04 276.227 -114.95 310.162 -111.64 344.663 C -104.27 344.663 -98.311 344.663 -90.39 344.662 M 191.526 240.743 C 176.622 240.743 161.718 240.743 147.061 240.743 C 144.844 250.887 145.033 336.225 147.087 343.966 C 218.816 343.966 290.565 343.966 363.004 343.966 C 365.702 309.607 366.782 275.852 366.992 240.743 C 308.524 240.743 251.025 240.743 191.526 240.743 M 55.526 478.562 C 73.8 478.562 92.074 478.562 110.953 478.562 C 110.953 444.854 110.953 412.033 110.953 378.762 C 37.744 378.762 -34.964 378.762 -108.47 378.762 C -105.11 412.485 -100.93 445.289 -95.114 478.562 C -44.987 478.562 4.269 478.562 55.526 478.562 M 356.435 416.981 C 357.169 404.243 360.223 391.635 359.53 378.869 C 341.991 376.96 153.623 377.715 146.432 379.614 C 144.581 392.84 145.163 470.829 147.165 477.846 C 164.812 479.8 340.363 478.957 348.246 476.622 C 350.844 457.593 353.493 438.181 356.435 416.981 M 45.526 612.577 C 67.13 612.577 88.734 612.577 110.138 612.577 C 112.534 601.045 112.023 519.565 109.705 512.656 C 88.021 510.668 -81.377 511.581 -89.148 513.908 C -82.969 546.797 -76.092 579.572 -66.837 612.577 C -29.663 612.577 6.932 612.577 45.526 612.577 M 219.526 512.06 C 195.276 512.06 171.026 512.06 146.965 512.06 C 144.646 523.132 145.079 604.82 147.392 612.162 C 204.143 612.162 260.977 612.162 318.583 612.162 C 327.589 579.423 335.627 546.699 341.473 512.06 C 300.572 512.06 261.049 512.06 219.526 512.06 M -35.824 -9.091 C -42.17 9.554 -45.62 28.62 -45.141 48.957 C -33.662 48.957 -23.131 48.957 -11.64 48.957 C -10.339 23.5 -5.062 -0.669 7.984 -22.643 C 20.854 -44.322 38.112 -61.503 59.954 -74.075 C 82.15 -86.85 106.171 -93.038 131.662 -92.372 C 164.03 -91.527 193.068 -80.837 217.904 -59.904 C 251.42 -31.654 267.451 5.153 268.981 49.207 C 280.136 49.622 290.581 49.802 300.819 49.174 C 301.29 46.976 301.594 46.019 301.68 45.043 C 301.797 43.719 301.837 42.374 301.755 41.048 C 300.056 13.407 293.183 -12.708 279.693 -37.091 C 238.859 -110.89 149.003 -144.91 69.831 -115.94 C 18.563 -97.179 -16.112 -61.498 -35.824 -9.091 M -38.187 702.15 C -32.075 716.846 -25.962 731.541 -19.984 745.913 C 24.331 745.913 67.434 745.913 110.426 745.913 C 112.643 732.928 111.993 653.978 109.723 647.261 C 54.616 647.261 -0.491 647.261 -56.999 647.261 C -51.299 665.896 -45.514 683.454 -38.187 702.15 M 145.517 732.934 C 145.517 737.177 145.517 741.419 145.517 745.664 C 148.038 746.073 149.332 746.466 150.626 746.468 C 188.554 746.509 226.482 746.409 264.408 746.638 C 269.788 746.671 272.202 744.248 273.873 739.794 C 284.619 711.163 295.445 682.562 306.144 653.913 C 306.88 651.944 306.798 649.671 307.159 647.094 C 253.22 647.094 200.094 647.094 145.518 647.094 C 145.518 675.332 145.518 703.17 145.517 732.934 M 280.564 811.143 C 267.154 832.47 251.686 852.236 233.582 871.013 C 279.574 873.965 456.987 807.001 474.043 780.607 C 417.233 780.607 360.667 780.644 304.103 780.533 C 299.832 780.525 297.402 782.254 295.418 785.788 C 290.86 793.908 286.046 801.884 280.564 811.143 M -26.448 862.005 C -12.324 865.105 1.623 869.202 17.73 870.448 C 15.434 867.093 14.259 864.783 12.554 862.974 C -8.391 840.755 -24.693 815.256 -39.508 788.774 C -42.818 782.856 -46.4 780.375 -53.438 780.421 C -104.06 780.748 -154.68 780.596 -205.29 780.596 C -208.12 780.596 -210.95 780.596 -213.77 780.596 C -213.9 781.398 -214.03 782.201 -214.15 783.003 C -156.36 819.074 -94.285 845.173 -26.448 862.005 M 101.86 147.282 C 101.86 172.133 101.86 196.984 101.86 222.264 C 118.768 222.264 134.496 222.264 150.557 222.264 C 150.557 164.848 150.557 108.131 150.557 50.944 C 134.238 50.944 118.499 50.944 101.86 50.944 C 101.86 82.846 101.86 114.064 101.86 147.282 M 111.617 821.284 C 111.617 808.063 111.617 794.841 111.617 781.877 C 98.096 779.525 7.194 780.16 0.212 782.63 C 8.982 798.441 19.375 812.979 30.959 826.654 C 49.913 849.03 71.991 867.326 99.744 877.916 C 103.01 879.162 106.504 879.81 111.617 881.207 C 111.617 860.907 111.617 842.095 111.617 821.284 M 156.086 780.605 C 152.887 780.787 149.689 780.968 146.689 781.138 C 144.505 794.428 145.098 872.897 147.294 879.808 C 167.286 877.549 189.79 864.55 210.682 843.194 C 228.669 824.807 250.72 791.413 251.729 780.605 C 220.45 780.605 189.214 780.605 156.086 780.605 Z" style="stroke-width: 1;"/>
    <path fill="#F9FDFB" opacity="1.000000" stroke="none" d="M 264.612 -457.67 C 325.406 -440.95 380.927 -414.95 431.59 -378.71 C 499.115 -330.41 552.727 -269.82 591.93 -196.61 C 625.712 -133.53 645.641 -66.257 651.936 5.022 C 652.99 16.946 653.558 28.913 654.255 40.866 C 654.444 44.11 654.284 47.375 654.284 52.008 C 648.114 52.008 642.899 52.008 637.684 52.008 C 632.403 52.008 627.122 52.008 621.121 52.008 C 615.183 -116.21 547.362 -252.06 411.398 -351.39 C 326.172 -413.66 229.19 -443.87 124.004 -442.91 C -11.045 -441.68 -127.93 -392.89 -223.23 -296.96 C -318.4 -201.15 -365.42 -84.027 -368.27 51.369 C -378.53 51.369 -388 51.369 -398.85 51.369 C -398.85 43.175 -399.23 35.269 -398.79 27.409 C -395.75 -26.459 -385.74 -78.93 -367.01 -129.64 C -343.42 -193.52 -309.02 -250.82 -263.25 -301.33 C -201.09 -369.93 -126.4 -419.4 -38.648 -448.95 C -0.944 -461.64 37.775 -470.99 77.458 -473.04 C 140.108 -476.27 202.764 -475.89 264.612 -457.67 Z" style="stroke-width: 1;"/>
    <path fill="#F9FDFC" opacity="1.000000" stroke="none" d="M -6.784 -289 C 28.273 -302.73 63.758 -311.18 100.604 -313.79 C 164.405 -318.3 225.563 -307.84 282.881 -279.3 C 389.635 -226.15 455.195 -140.59 480.493 -24.137 C 485.172 -2.598 487.028 19.28 487.53 41.281 C 487.604 44.528 487.237 47.784 487.051 51.499 C 475.077 51.499 463.864 51.499 451.673 51.499 C 450.143 -62.421 405.865 -155.11 312.666 -222.14 C 255.075 -263.56 189.77 -282.87 119.078 -280.67 C 30.443 -277.91 -45.606 -244.18 -106.57 -179.69 C -167.39 -115.34 -196.21 -37.592 -195.91 51.395 C -208.27 51.395 -219.78 51.395 -231.29 51.395 C -238.57 -61.328 -170.45 -222.27 -6.784 -289 Z" style="stroke-width: 1;"/>
    <path fill="#FCFEFE" opacity="1.000000" stroke="none" d="M 598.526 344.655 C 534.304 344.655 471.083 344.655 407.016 344.655 C 408.453 309.89 409.848 276.154 411.24 242.416 C 418.159 240.353 772.239 239.717 786.299 241.894 C 785.729 275.958 781.751 309.729 775.415 344.655 C 716.538 344.655 658.032 344.655 598.526 344.655 Z" style="stroke-width: 1;"/>
    <path fill="#FCFEFE" opacity="1.000000" stroke="none" d="M -508.75 344.646 C -514.56 345.266 -515.97 342.295 -516.58 338.203 C -517.94 328.979 -519.88 319.82 -520.81 310.556 C -522.92 289.378 -524.58 268.155 -526.36 246.944 C -526.49 245.354 -526.03 243.715 -525.78 241.441 C -402.76 241.441 -280.03 241.441 -156.67 241.441 C -155.16 275.437 -153.67 309.18 -152.19 342.666 C -152.69 343.17 -152.91 343.429 -153.17 343.637 C -153.42 343.838 -153.71 344.137 -153.98 344.138 C -271.93 344.324 -389.88 344.488 -508.75 344.646 Z" style="stroke-width: 1;"/>
    <path fill="#FDFEFE" opacity="1.000000" stroke="none" d="M 756.311 378.072 C 760.239 378.072 763.193 378.072 767.803 378.072 C 759.969 413.174 748.62 445.847 735.286 477.959 C 620.507 477.959 506.431 477.959 391.728 477.959 C 395.919 444.455 400.027 411.615 404.223 378.072 C 521.592 378.072 638.465 378.072 756.311 378.072 Z" style="stroke-width: 1;"/>
    <path fill="#FDFEFE" opacity="1.000000" stroke="none" d="M -152.32 378.211 C -150.32 380.536 -148.56 382.687 -148.28 385.018 C -144.66 414.751 -141.26 444.509 -137.84 474.265 C -137.73 475.202 -138.05 476.189 -138.26 477.846 C -250.13 477.846 -361.96 477.846 -475.13 477.846 C -488.64 446.387 -499.53 413.436 -507.96 378.12 C -388.97 378.12 -271.1 378.12 -152.32 378.211 Z" style="stroke-width: 1;"/>
    <path fill="#FDFEFE" opacity="1.000000" stroke="none" d="M 534.526 612.57 C 476.978 612.57 420.431 612.57 363.095 612.57 C 370.745 578.916 378.165 546.274 385.613 513.506 C 392.473 511.695 700.297 510.908 718.074 512.788 C 717.655 514.676 717.617 516.685 716.794 518.293 C 701.458 548.256 684.255 577.08 664.882 604.644 C 660.765 610.503 656.495 612.777 649.393 612.718 C 611.439 612.401 573.482 612.569 534.526 612.57 Z" style="stroke-width: 1;"/>
    <path fill="#FDFEFE" opacity="1.000000" stroke="none" d="M -179.47 612.57 C -249.78 612.57 -319.1 612.424 -388.41 612.768 C -396.44 612.807 -401.05 610.083 -405.46 603.684 C -422.69 578.693 -438.6 552.928 -452.75 526.083 C -454.87 522.078 -456.59 517.868 -458.98 512.698 C -349.07 512.698 -240.64 512.698 -131.67 512.698 C -124.09 545.389 -116.53 578.036 -108.66 611.96 C -132.29 613.296 -155.4 612.222 -179.47 612.57 Z" style="stroke-width: 1;"/>
    <path fill="#FCFEFD" opacity="1.000000" stroke="none" d="M 595.172 686.928 C 574.292 705.563 553.89 723.673 533.551 741.853 C 529.903 745.114 525.987 746.63 520.937 746.62 C 454.971 746.479 389.004 746.529 323.038 746.501 C 321.081 746.5 319.123 746.17 316.702 745.952 C 329.001 712.954 341.157 680.339 353.491 647.25 C 445.231 647.25 537.293 647.25 631.335 647.25 C 619.602 661.984 607.773 674.324 595.172 686.928 Z" style="stroke-width: 1;"/>
    <path fill="#FBFEFD" opacity="1.000000" stroke="none" d="M -137.47 746.53 C -178.43 746.53 -218.38 746.413 -258.33 746.649 C -264.72 746.686 -269.69 744.89 -274.67 740.967 C -307.72 714.945 -337.71 685.743 -365.61 654.343 C -367.12 652.643 -368.29 650.641 -369.5 648.951 C -369.14 648.259 -369.02 647.956 -368.83 647.699 C -368.65 647.445 -368.43 647.06 -368.19 647.036 C -366.54 646.87 -364.88 646.687 -363.22 646.687 C -275.36 646.671 -187.49 646.673 -99.53 646.673 C -87.35 679.75 -75.345 712.34 -63.023 745.788 C -75.275 747.344 -87.43 746.302 -99.52 746.488 C -111.83 746.678 -124.16 746.53 -137.47 746.53 Z" style="stroke-width: 1;"/>
    <path fill="#FBFEFD" opacity="1.000000" stroke="none" d="M -91.371 344.662 C -98.311 344.663 -104.27 344.663 -111.64 344.663 C -114.95 310.162 -117.04 276.227 -117.67 241.446 C -41.422 241.446 34.336 241.446 110.838 241.446 C 110.838 275.628 110.838 309.711 110.838 344.662 C 43.403 344.662 -23.493 344.662 -91.371 344.662 Z" style="stroke-width: 1;"/>
    <path fill="#FCFEFE" opacity="1.000000" stroke="none" d="M 192.526 240.743 C 251.025 240.743 308.524 240.743 366.992 240.743 C 366.782 275.852 365.702 309.607 363.004 343.966 C 290.565 343.966 218.816 343.966 147.087 343.966 C 145.033 336.225 144.844 250.887 147.061 240.743 C 161.718 240.743 176.622 240.743 192.526 240.743 Z" style="stroke-width: 1;"/>
    <path fill="#FCFEFD" opacity="1.000000" stroke="none" d="M 54.526 478.562 C 4.269 478.562 -44.987 478.562 -95.114 478.562 C -100.93 445.289 -105.11 412.485 -108.47 378.762 C -34.964 378.762 37.744 378.762 110.953 378.762 C 110.953 412.033 110.953 444.854 110.953 478.562 C 92.074 478.562 73.8 478.562 54.526 478.562 Z" style="stroke-width: 1;"/>
    <path fill="#FDFEFE" opacity="1.000000" stroke="none" d="M 356.288 417.875 C 353.493 438.181 350.844 457.593 348.246 476.622 C 340.363 478.957 164.812 479.8 147.165 477.846 C 145.163 470.829 144.581 392.84 146.432 379.614 C 153.623 377.715 341.991 376.96 359.53 378.869 C 360.223 391.635 357.169 404.243 356.288 417.875 Z" style="stroke-width: 1;"/>
    <path fill="#FCFEFD" opacity="1.000000" stroke="none" d="M 44.526 612.577 C 6.932 612.577 -29.663 612.577 -66.837 612.577 C -76.092 579.572 -82.969 546.797 -89.148 513.908 C -81.377 511.581 88.021 510.668 109.705 512.656 C 112.023 519.565 112.534 601.045 110.138 612.577 C 88.734 612.577 67.13 612.577 44.526 612.577 Z" style="stroke-width: 1;"/>
    <path fill="#FDFEFE" opacity="1.000000" stroke="none" d="M 220.526 512.06 C 261.049 512.06 300.572 512.06 341.473 512.06 C 335.627 546.699 327.589 579.423 318.583 612.162 C 260.977 612.162 204.143 612.162 147.392 612.162 C 145.079 604.82 144.646 523.132 146.965 512.06 C 171.026 512.06 195.276 512.06 220.526 512.06 Z" style="stroke-width: 1;"/>
    <path fill="#F8FCFB" opacity="1.000000" stroke="none" d="M -35.598 -9.844 C -16.112 -61.498 18.563 -97.179 69.831 -115.94 C 149.003 -144.91 238.859 -110.89 279.693 -37.091 C 293.183 -12.708 300.056 13.407 301.755 41.048 C 301.837 42.374 301.797 43.719 301.68 45.043 C 301.594 46.019 301.29 46.976 300.819 49.174 C 290.581 49.802 280.136 49.622 268.981 49.207 C 267.451 5.153 251.42 -31.654 217.904 -59.904 C 193.068 -80.837 164.03 -91.527 131.662 -92.372 C 106.171 -93.038 82.15 -86.85 59.954 -74.075 C 38.112 -61.503 20.854 -44.322 7.984 -22.643 C -5.062 -0.669 -10.339 23.5 -11.64 48.957 C -23.131 48.957 -33.662 48.957 -45.141 48.957 C -45.62 28.62 -42.17 9.554 -35.598 -9.844 Z" style="stroke-width: 1;"/>
    <path fill="#FAFDFC" opacity="1.000000" stroke="none" d="M -38.469 701.425 C -45.514 683.454 -51.299 665.896 -56.999 647.261 C -0.491 647.261 54.616 647.261 109.724 647.256 C 111.993 653.978 112.643 732.928 110.426 745.913 C 67.434 745.913 24.331 745.913 -19.984 745.913 C -25.962 731.541 -32.075 716.846 -38.469 701.425 Z" style="stroke-width: 1;"/>
    <path fill="#FCFEFD" opacity="1.000000" stroke="none" d="M 145.517 731.971 C 145.518 703.17 145.518 675.332 145.518 647.094 C 200.094 647.094 253.22 647.094 307.159 647.094 C 306.798 649.671 306.88 651.944 306.144 653.913 C 295.445 682.562 284.619 711.163 273.873 739.794 C 272.202 744.248 269.788 746.671 264.408 746.638 C 226.482 746.409 188.554 746.509 150.626 746.468 C 149.332 746.466 148.038 746.073 145.517 745.664 C 145.517 741.419 145.517 737.177 145.517 731.971 Z" style="stroke-width: 1;"/>
    <path fill="#F9FDFC" opacity="1.000000" stroke="none" d="M 280.95 810.531 C 286.046 801.884 290.86 793.908 295.418 785.788 C 297.402 782.254 299.832 780.525 304.103 780.533 C 360.667 780.644 417.233 780.607 474.043 780.607 C 456.987 807.001 279.574 873.965 233.582 871.013 C 251.686 852.236 267.154 832.47 280.95 810.531 Z" style="stroke-width: 1;"/>
    <path fill="#F9FDFB" opacity="1.000000" stroke="none" d="M -27.253 861.808 C -94.285 845.173 -156.36 819.074 -214.15 783.003 C -214.03 782.201 -213.9 781.398 -213.77 780.596 C -210.95 780.596 -208.12 780.596 -205.29 780.596 C -154.68 780.596 -104.06 780.748 -53.438 780.421 C -46.4 780.375 -42.818 782.856 -39.508 788.774 C -24.693 815.256 -8.391 840.755 12.554 862.974 C 14.259 864.783 15.434 867.093 17.73 870.448 C 1.623 869.202 -12.324 865.105 -27.253 861.808 Z" style="stroke-width: 1;"/>
    <path fill="#FDFEFE" opacity="1.000000" stroke="none" d="M 101.86 146.282 C 101.86 114.064 101.86 82.846 101.86 50.944 C 118.499 50.944 134.238 50.944 150.557 50.944 C 150.557 108.131 150.557 164.848 150.557 222.264 C 134.496 222.264 118.768 222.264 101.86 222.264 C 101.86 196.984 101.86 172.133 101.86 146.282 Z" style="stroke-width: 1;"/>
    <path fill="#F7FCFB" opacity="1.000000" stroke="none" d="M 111.617 822.284 C 111.617 842.095 111.617 860.907 111.617 881.207 C 106.504 879.81 103.01 879.162 99.744 877.916 C 71.991 867.326 49.913 849.03 30.959 826.654 C 19.375 812.979 8.982 798.441 0.212 782.63 C 7.194 780.16 98.096 779.525 111.617 781.877 C 111.617 794.841 111.617 808.063 111.617 822.284 Z" style="stroke-width: 1;"/>
    <path fill="#FAFDFC" opacity="1.000000" stroke="none" d="M 157.032 780.605 C 189.214 780.605 220.45 780.605 251.729 780.605 C 250.72 791.413 228.669 824.807 210.682 843.194 C 189.79 864.55 167.286 877.549 147.294 879.808 C 145.098 872.897 144.505 794.428 146.689 781.138 C 149.689 780.968 152.887 780.787 157.032 780.605 Z" style="stroke-width: 1;"/>
  </g>
</svg>